<svg width="128" height="60" viewBox="0 0 128 60" fill="none" xmlns="http://www.w3.org/2000/svg">
<path d="M55.37 28.355C58.87 28.355 61.66 26.155 62.44 22.845H59.5C58.73 24.565 57.23 25.575 55.37 25.575C52.84 25.575 50.9 23.545 50.9 20.915C50.9 18.285 52.81 16.275 55.37 16.275C57.22 16.275 58.77 17.265 59.52 18.895H62.41C61.62 15.645 58.89 13.495 55.38 13.495C51.14 13.495 47.94 16.675 47.94 20.915C47.94 25.155 51.15 28.365 55.37 28.365" fill="#1A0D3F"/>
<path d="M74.28 24.765C73.54 25.315 72.61 25.625 71.55 25.625C69.23 25.625 67.57 24.215 67.21 21.915H78.72C78.75 21.595 78.78 21.275 78.78 20.955C78.78 16.825 75.89 13.485 71.55 13.485C67.21 13.485 64.26 16.675 64.26 20.915C64.26 25.155 67.4 28.345 71.55 28.345C73.35 28.345 74.97 27.755 76.23 26.695L74.28 24.755V24.765ZM71.55 16.115C73.71 16.115 75.33 17.385 75.86 19.545H67.29C67.76 17.445 69.36 16.115 71.56 16.115" fill="#1A0D3F"/>
<path d="M87.04 19.455C85.33 19.175 83.88 18.925 83.88 17.675C83.88 16.645 84.88 15.955 86.49 15.955C88.2 15.955 89.23 16.675 89.28 18.025H92.04C91.99 15.275 89.85 13.485 86.56 13.485C83.27 13.485 81.06 15.225 81.06 17.765C81.06 21.055 83.84 21.585 86.21 21.995C87.95 22.285 89.47 22.595 89.47 23.945C89.47 25.125 88.27 25.795 86.7 25.795C84.99 25.795 83.73 25.015 83.66 23.515H80.81C80.88 26.455 83.15 28.365 86.6 28.365C90.05 28.365 92.35 26.575 92.35 23.825C92.35 20.325 89.44 19.865 87.04 19.465" fill="#1A0D3F"/>
<path d="M101.81 28.355C103.88 28.355 105.67 27.575 106.95 26.275L107.23 27.995H109.58V13.815H107.33L106.99 15.585C105.7 14.265 103.89 13.475 101.8 13.475C97.58 13.475 94.42 16.645 94.42 20.905C94.42 25.165 97.58 28.345 101.8 28.345M102.04 16.265C104.71 16.265 106.67 18.245 106.67 20.915C106.67 23.585 104.72 25.565 102.04 25.565C99.36 25.565 97.4 23.565 97.4 20.915C97.4 18.265 99.37 16.265 102.04 16.265Z" fill="#1A0D3F"/>
<path d="M119.99 25.625C117.67 25.625 116.02 24.215 115.65 21.915H127.16C127.19 21.595 127.22 21.275 127.22 20.955C127.22 16.825 124.33 13.485 119.99 13.485C115.65 13.485 112.71 16.675 112.71 20.915C112.71 25.155 115.85 28.345 119.99 28.345C121.78 28.345 123.38 27.765 124.64 26.725L122.69 24.775C121.96 25.305 121.04 25.605 119.99 25.605M119.99 16.115C122.15 16.115 123.77 17.385 124.3 19.545H115.72C116.2 17.445 117.8 16.115 119.99 16.115Z" fill="#1A0D3F"/>
<path d="M61.86 43.1349C60.7 40.8049 58.36 39.2849 55.45 39.2849C51.31 39.2849 48.22 42.4549 48.22 46.6549C48.22 50.8549 51.31 54.0149 55.45 54.0149C58.38 54.0149 60.73 52.4749 61.88 50.1249L62 53.7449H62.7V34.5549H61.86V43.1349ZM55.49 53.1949C51.83 53.1949 49.07 50.3749 49.07 46.6549C49.07 42.9349 51.83 40.1049 55.49 40.1049C59.15 40.1049 61.9 42.8749 61.9 46.6549C61.9 50.4349 59.19 53.1949 55.49 53.1949Z" fill="#1A0D3F"/>
<path d="M68.89 34.9449H67.66V36.4049H68.89V34.9449Z" fill="#1A0D3F"/>
<path d="M68.7 39.5549H67.86V53.7349H68.7V39.5549Z" fill="#1A0D3F"/>
<path d="M85.71 43.115C84.62 40.805 82.32 39.275 79.54 39.275C75.64 39.275 72.64 42.305 72.64 46.255C72.64 50.205 75.63 53.225 79.54 53.225C82.28 53.225 84.53 51.785 85.65 49.565V51.725C85.65 55.805 83.4 58.235 79.77 58.235C77.16 58.235 75.17 56.965 74.33 54.685H73.49C74.37 57.415 76.61 59.015 79.77 59.015C83.95 59.015 86.48 56.235 86.48 51.645V39.555H85.84L85.72 43.115H85.71ZM79.6 52.415C76.12 52.415 73.48 49.765 73.48 46.255C73.48 42.745 76.11 40.095 79.6 40.095C83.09 40.095 85.63 42.725 85.63 46.255C85.63 49.785 83.08 52.415 79.6 52.415Z" fill="#1A0D3F"/>
<path d="M92.65 34.9449H91.42V36.4049H92.65V34.9449Z" fill="#1A0D3F"/>
<path d="M92.46 39.5549H91.62V53.7349H92.46V39.5549Z" fill="#1A0D3F"/>
<path d="M99.45 49.395V40.325H104.6V39.585H99.45V35.395H98.61V39.585H95.34V40.325H98.61V49.435C98.61 52.115 100.22 53.745 102.86 53.745H104.72V52.945H102.93C100.72 52.945 99.45 51.635 99.45 49.395Z" fill="#1A0D3F"/>
<path d="M119.9 43.265C118.76 40.865 116.4 39.285 113.42 39.285C109.3 39.285 106.19 42.455 106.19 46.655C106.19 50.855 109.3 54.015 113.42 54.015C116.39 54.015 118.76 52.435 119.9 50.035L119.99 53.735H120.73V39.555H120.02L119.91 43.255L119.9 43.265ZM113.47 53.195C109.81 53.195 107.04 50.385 107.04 46.655C107.04 42.925 109.8 40.105 113.47 40.105C117.14 40.105 119.87 42.875 119.87 46.655C119.87 50.435 117.17 53.195 113.47 53.195Z" fill="#1A0D3F"/>
<path d="M126.72 34.545H125.88V53.735H126.72V34.545Z" fill="#1A0D3F"/>
<path d="M14.81 40.825H26.6L37.87 52.095H14.81V40.825ZM1.76 40.095V28.305H13.04V51.365L1.76 40.095ZM13.77 15.265H25.56V26.535H2.49L13.76 15.265H13.77ZM27.32 2.74499H38.59V14.535L27.32 25.805V2.74499ZM25.56 0.984985V13.505H13.04L0 26.545V40.825L13.04 53.865H40.37V52.105L27.33 39.065H14.8V28.305H27.32L40.36 15.265V0.984985H25.56Z" fill="url(#paint0_linear_453_7418)"/>
<defs>
<linearGradient id="paint0_linear_453_7418" x1="20.18" y1="0.984985" x2="20.18" y2="53.865" gradientUnits="userSpaceOnUse">
<stop stop-color="#37246A"/>
<stop offset="0.5" stop-color="#EC008B"/>
<stop offset="1" stop-color="#00ADEF"/>
</linearGradient>
</defs>
</svg>
